<svg width="22" height="22" viewBox="0 0 22 22" fill="none" xmlns="http://www.w3.org/2000/svg">
<g clip-path="url(#clip0_1_224)">
<path d="M14.9113 15.5925L15.6144 17.2005C15.6144 17.2005 18.7783 17.9145 18.7783 19.6126C18.7783 20.8186 17.3721 20.8186 17.3721 20.8186H13.6223L11.7767 19.7292" stroke="#F97316" stroke-width="1.6" stroke-linecap="round" stroke-linejoin="round"/>
<path d="M10.6937 15.5925L9.99059 17.2005C9.99059 17.2005 6.82672 17.9145 6.82672 19.6126C6.82672 20.8186 8.23288 20.8186 8.23288 20.8186H9.932L11.7776 19.7292L14.0333 18.204" stroke="#F97316" stroke-width="1.6" stroke-linecap="round" stroke-linejoin="round"/>
<path d="M5.41986 16.3972C5.41986 16.3972 7.17757 15.9953 8.23219 15.5932C9.28682 9.96512 12.4507 10.3671 12.8022 10.3671C13.1538 10.3671 16.3176 9.96512 17.3723 15.5932C18.4269 15.9953 20.1846 16.3972 20.1846 16.3972" stroke="#F97316" stroke-width="1.6" stroke-linecap="round" stroke-linejoin="round"/>
<path d="M12.8016 8.61628C13.7077 8.61628 14.4421 7.83588 14.4421 6.87321C14.4421 5.91053 13.7077 5.13013 12.8016 5.13013C11.8955 5.13013 11.1611 5.91053 11.1611 6.87321C11.1611 7.83588 11.8955 8.61628 12.8016 8.61628Z" stroke="#F97316" stroke-width="1.6" stroke-linecap="round" stroke-linejoin="round"/>
</g>
<defs>
<clipPath id="clip0_1_224">
<rect width="21" height="21" fill="white" transform="translate(0.876831 0.587158)"/>
</clipPath>
</defs>
</svg>
