<svg width="22" height="22" viewBox="0 0 22 22" fill="none" xmlns="http://www.w3.org/2000/svg">
<path d="M16.138 17.8585H5.32119C5.03149 17.8585 4.79663 17.6237 4.79663 17.3339V8.76606C4.79663 8.47636 5.03149 8.2415 5.32119 8.2415H7.74085C8.35505 8.2415 8.92421 7.91924 9.24021 7.39257L11.6098 3.44315C12.1212 2.59097 13.3255 2.50996 13.9463 3.286C14.2389 3.65179 14.3333 4.13797 14.1986 4.58666L13.3048 7.5662C13.2038 7.90277 13.4559 8.2415 13.8072 8.2415H17.8071C18.96 8.2415 19.7974 9.33784 19.494 10.4501L17.825 16.57C17.6175 17.3308 16.9266 17.8585 16.138 17.8585Z" stroke="#F97316" stroke-width="1.4" stroke-linecap="round"/>
<path d="M7.85657 17.8585V8.24146" stroke="#F97316" stroke-width="1.4" stroke-linecap="round" stroke-linejoin="round"/>
</svg>
